<?xml version="1.0" encoding="utf-8"?>
<!-- Generator: Adobe Illustrator 21.1.0, SVG Export Plug-In . SVG Version: 6.00 Build 0)  -->
<svg version="1.1" id="Слой_1" xmlns="http://www.w3.org/2000/svg" xmlns:xlink="http://www.w3.org/1999/xlink" x="0px" y="0px"
	 viewBox="0 0 1080 1080" enable-background="new 0 0 1080 1080" xml:space="preserve">
<circle fill="#FFFFFF" cx="539.5" cy="540.5" r="539.5"/>
<g>
	<polygon fill="#259904" points="537.4,613.7 748,590.4 617.2,385.8 538.6,413 	"/>
</g>
<g>
	<polygon fill="#259904" points="538.6,437.9 693.4,429.1 594.7,274.8 539.8,295.4 	"/>
</g>
<g>
	<polygon fill="#259904" points="539.8,295.4 654.3,316.9 580.1,200.9 541,218.1 	"/>
</g>
<g>
	<polygon fill="#259904" points="542.3,235.5 630.5,230.9 544.6,95.8 537.7,147.3 	"/>
</g>
<g>
	<polygon fill="#32AD04" points="537.4,613.7 334.5,589.2 465.3,384.6 538.6,413 	"/>
</g>
<g>
	<polygon fill="#32AD04" points="538.6,435.5 389.1,427.9 487.8,273.6 539.8,295.4 	"/>
</g>
<g>
	<polygon fill="#32AD04" points="539.8,321.5 428.2,315.7 502.4,199.7 543.4,215.8 	"/>
</g>
<g>
	<polygon fill="#32AD04" points="543.4,239.5 452,229.7 544.6,95.8 543.4,145.7 	"/>
</g>
<polygon fill="#D30000" points="544.6,18.1 558.7,46.7 590.2,51.2 567.4,73.5 572.8,104.9 544.6,90.1 516.3,104.9 521.7,73.5 
	498.9,51.2 530.5,46.7 "/>
<g>
	<g>
		<path fill="#5B0202" d="M351.5,329.7c-52.1,33.2-95.7,79.7-124.4,134.6c-29.4,56.2-43.5,120.2-39.8,183.6
			c3.3,57.6,20.6,114.2,50.6,163.5c29.1,47.8,69.7,88.4,117.3,117.8c49,30.2,105.2,47.5,162.6,51.2c58.3,3.7,116.9-7.7,169.9-31.9
			c50-22.9,94.7-58.3,128.6-101.5c35-44.8,59.7-97.2,69.9-153.2c11.3-61.5,6.8-125.9-14.7-184.8c-21.3-58.3-57.5-111.1-105.3-150.8
			c-12-10-24.6-19.3-37.8-27.7c-7.9-5.1-20.2-1.9-24.6,6.5c-4.7,8.9-2,19.2,6.5,24.6c6.1,3.9,12.2,8,18.1,12.4c1.4,1,2.7,2,4.1,3
			c0.4,0.3,2.9,2.2,1.1,0.8c-1.7-1.3,0.2,0.2,0.5,0.4c3,2.4,6.1,4.9,9,7.4c10.9,9.2,21.2,19.2,30.9,29.7c4.9,5.4,9.6,10.9,14.2,16.6
			c1.1,1.3,2.1,2.7,3.2,4c-2.6-3.3,1.1,1.5,1.6,2.2c2.2,2.9,4.3,5.9,6.4,8.9c8.2,11.8,15.6,24.2,22.3,36.9
			c3.4,6.5,6.6,13.2,9.5,19.9c0.4,0.9,0.8,1.8,1.2,2.7c-0.3-0.6-1.4-3.4-0.1-0.2c0.6,1.6,1.3,3.2,1.9,4.8c1.4,3.4,2.6,6.9,3.9,10.4
			c5,14.1,9,28.5,12.1,43.2c1.5,7.4,2.8,14.9,3.9,22.4c-0.5-3.6,0.1,0.7,0.2,2c0.2,1.8,0.4,3.6,0.6,5.3c0.4,3.8,0.7,7.7,1,11.5
			c1,14.7,1,29.5,0.1,44.3c-0.4,6.9-1.2,13.8-2,20.7c-0.2,2.1,0.1-1.3,0.2-1.4c-0.3,0.4-0.3,2.1-0.4,2.7c-0.2,1.6-0.5,3.2-0.7,4.7
			c-0.5,3.4-1.1,6.7-1.8,10.1c-2.5,13.3-5.9,26.4-10,39.2c-2,6.4-4.3,12.7-6.7,18.9c-0.6,1.4-1.1,2.9-1.7,4.3
			c-0.7,1.6-1.7,4.6-0.5,1.2c-1.2,3.3-2.8,6.5-4.3,9.7c-5.5,11.8-11.6,23.2-18.4,34.3c-3.4,5.6-7,11.1-10.8,16.5
			c-1.8,2.5-3.5,5-5.4,7.4c-0.9,1.2-1.8,2.4-2.8,3.7c-1.9,2.6,0.1-0.1,0.4-0.5c-0.7,0.9-1.3,1.7-2,2.6c-8,10.1-16.6,19.7-25.7,28.8
			c-9.3,9.3-19.1,17.8-29.4,26c-0.7,0.6-2.7,2.1,0.5-0.4c-0.5,0.4-1,0.8-1.6,1.2c-1.2,0.9-2.4,1.8-3.7,2.7c-2.8,2.1-5.7,4.1-8.5,6.1
			c-5.4,3.7-10.9,7.3-16.5,10.7c-11.1,6.7-22.6,12.8-34.4,18.2c-1.4,0.6-2.8,1.3-4.2,1.9c-0.9,0.4-6.1,2.9-1.8,0.8
			c-3,1.4-6.2,2.5-9.3,3.7c-6.2,2.4-12.6,4.6-18.9,6.6c-12.7,4-25.6,7.2-38.6,9.7c-3.4,0.6-6.7,1.2-10.1,1.7
			c-1.6,0.2-3.2,0.5-4.7,0.7c-2.9,0.4,0.5-0.4,0.7-0.1c-0.1-0.1-2.5,0.3-2.7,0.3c-6.9,0.8-13.8,1.4-20.7,1.8c-14,0.8-28,0.8-42-0.2
			c-6.7-0.4-13.3-1.2-20-1.9c-2.6-0.3,3.3,0.5,0.7,0.1c-0.7-0.1-1.4-0.2-2-0.3c-1.8-0.3-3.6-0.5-5.4-0.8c-3.4-0.5-6.7-1.1-10.1-1.8
			c-13.2-2.6-26.3-5.9-39.2-10.1c-6.1-2-12.2-4.2-18.2-6.5c-1.7-0.6-3.3-1.3-4.9-2c-0.6-0.3-1.2-0.5-1.8-0.8
			c-2.4-0.9,2.9,1.3,0.6,0.3c-3-1.4-6.1-2.7-9.1-4.1c-12-5.6-23.6-11.8-34.8-18.8c-5.6-3.5-11.1-7.1-16.4-10.8
			c-2.5-1.8-5-3.6-7.4-5.4c-1.2-0.9-2.4-1.9-3.7-2.8c-2-1.5,2.5,2,0.5,0.4c-0.8-0.7-1.7-1.4-2.6-2c-20.4-16.3-38.1-35-54.7-55.2
			c-1.3-1.6,0.8,1,0.8,1.1c-0.5-0.7-1.1-1.4-1.6-2.1c-0.9-1.2-1.8-2.4-2.7-3.7c-1.9-2.6-3.8-5.3-5.7-8c-3.7-5.4-7.3-10.9-10.7-16.5
			c-6.8-11.3-13-23-18.5-35c-0.6-1.4-1.3-2.8-1.9-4.2c-0.7-1.6-2.1-4.4-0.5-1.2c-1.5-3.2-2.7-6.6-3.9-9.9
			c-2.4-6.2-4.6-12.6-6.6-18.9c-4-12.7-7.2-25.6-9.6-38.7c-0.6-3.1-1.1-6.3-1.6-9.4c-0.2-1.6-0.5-3.2-0.7-4.7
			c-0.5-3.4,0,0.2,0.1,0.7c-0.2-1.1-0.3-2.3-0.4-3.4c-0.8-6.9-1.4-13.8-1.8-20.7c-0.8-14.6-0.7-29.2,0.4-43.8
			c0.3-3.6,0.6-7.2,1-10.7c0.2-2,0.5-4.1,0.7-6.1c0-0.3,0.4-2.9,0.1-0.6c-0.3,2.6,0.2-1.6,0.3-2.1c1.1-7.5,2.5-14.9,4.1-22.3
			c3.2-14.6,7.3-28.9,12.4-43c1.2-3.2,2.4-6.5,3.7-9.7c0.3-0.7,0.6-1.4,0.8-2.1c0.2-0.5,1.4-3.4,0.5-1.3c-0.8,2,0.1-0.3,0.2-0.6
			c0.5-1.1,1-2.3,1.5-3.4c3-6.7,6.2-13.3,9.6-19.8c6.8-12.9,14.4-25.4,22.9-37.3c2-2.8,4-5.5,6-8.2c0.4-0.6,0.9-1.2,1.3-1.7
			c-2.2,2.9-0.6,0.8-0.1,0.2c1.2-1.5,2.4-3,3.6-4.5c4.6-5.6,9.3-11.1,14.3-16.5c9.9-10.7,20.4-20.7,31.6-30c2.6-2.2,5.3-4.3,7.9-6.4
			c0.6-0.5,2.7-2-0.2,0.1c0.6-0.4,1.2-0.9,1.7-1.3c1.4-1,2.7-2,4.1-3c5.9-4.3,11.9-8.4,18.1-12.3c7.9-5.1,11.9-16.2,6.5-24.6
			C371,328.2,360,324.3,351.5,329.7L351.5,329.7z"/>
	</g>
</g>
<g>
	<path fill="#440202" d="M369.7,837.8v-183H427l42.7,125.7l41.6-125.7h56v183h-37.8v-130l-45,130h-31.1L408,709v128.8H369.7z"/>
	<path fill="#440202" d="M713.1,654.8v125.7c0,41.1-20,61.7-60.1,61.7c-19.4,0-34.4-5.1-45.1-15.2c-10.7-10.1-16.1-25.3-16.1-45.5
		v-12.1h37v5.7c0,4.6,0,8.1,0.1,10.4c0.1,2.3,0.5,5.3,1.3,9c0.8,3.7,1.9,6.4,3.5,8.2c1.5,1.8,3.8,3.4,6.8,4.9
		c3,1.5,6.7,2.2,11.2,2.2c4.8,0,8.7-0.8,11.7-2.3c3-1.5,5.2-3.9,6.6-7.1c1.4-3.2,2.2-6.3,2.6-9.4c0.3-3.1,0.5-7,0.5-11.8V654.8
		H713.1z"/>
</g>
<circle fill="#D30000" cx="275" cy="356.4" r="35.1"/>
<circle fill="#D30000" cx="158" cy="683.1" r="35.1"/>
<circle fill="#D30000" cx="275" cy="905.4" r="35.1"/>
<circle fill="#D30000" cx="797.9" cy="345.6" r="35.1"/>
<circle fill="#D30000" cx="909.5" cy="718.2" r="35.1"/>
<circle fill="#D30000" cx="797.9" cy="913.5" r="35.1"/>
<polygon fill="#32AD04" points="229.4,470.1 202.2,533.3 129.6,502.1 175.6,484.1 156.7,438.9 "/>
<polygon fill="#32AD04" points="851.7,466.6 874.4,531.6 949,505.5 904.4,484.4 926.3,440.6 "/>
<polygon fill="#32AD04" points="823,832.7 856.3,772.5 925.5,810.8 877.9,824.1 892.2,871 "/>
<polygon fill="#32AD04" points="219,769.6 256.6,827.2 190.3,870.4 200.9,822.1 152.8,812.8 "/>
<polygon fill="#32AD04" points="508,977.5 576.7,974.4 580.2,1053.3 544,1019.7 511.5,1056.4 "/>
<g>
</g>
<g>
</g>
<g>
</g>
<g>
</g>
<g>
</g>
<g>
</g>
<g>
</g>
<g>
</g>
<g>
</g>
<g>
</g>
<g>
</g>
<g>
</g>
<g>
</g>
<g>
</g>
<g>
</g>
</svg>
